<?xml version="1.0" encoding="utf-8"?>
<svg xmlns="http://www.w3.org/2000/svg" viewBox="315.5147 -76.4798 504.5 479.2401" width="504.5px" height="479.24px" preserveAspectRatio="none"><g transform="matrix(1, 0, 0, 1, 201.51466369628906, -258.7397155761719)" id="object-0"><g><path style="opacity: 1; fill: rgb(241, 50, 77);" d="M 452.5 182.5 C 466.873 181.851 480.873 182.518 494.5 184.5 C 462.963 343.519 431.296 502.519 399.5 661.5 C 385.167 661.5 370.833 661.5 356.5 661.5 C 362.933 628.834 369.433 596.167 376 563.5 C 376.667 561.5 376.667 559.5 376 557.5 C 355.167 542.667 334.333 527.833 313.5 513 C 331.237 486.318 348.403 459.485 365 432.5 C 359.051 437.78 352.551 442.28 345.5 446 C 343.741 446.798 341.019 447.475 339.445 446.344 C 343.412 437.385 346.633 427.207 347 417.5 C 344.861 422.916 342.317 427.827 339.789 433.078 C 337.956 436.245 331.448 437.69 328.281 439.523 C 317.33 440.873 310.549 442.85 299.5 442.5 C 309.765 430.366 318.765 417.199 326.5 403 C 325.668 402.312 325.002 402.479 324.5 403.5 C 313.455 424.576 296.455 431.742 273.5 425 C 264.836 421.837 256.503 418.003 248.5 413.5 C 265.364 404.812 279.864 393.145 292 378.5 C 294.34 376.209 295.673 373.542 296 370.5 C 277.877 385.144 257.377 394.811 234.5 399.5 C 212.554 394.778 193.721 384.445 178 368.5 C 177.51 367.207 175.655 365.873 175.812 364.5 C 206.376 360.017 238.398 354.351 268.5 347.5 C 269.766 346.91 271.099 346.41 272.5 346 C 269.633 345.199 266.966 345.366 264.5 346.5 C 238.908 349.08 213.241 349.913 187.5 349 C 169.77 339.937 155.937 326.77 146 309.5 C 145.137 307.251 143.527 305.418 145.39 304 C 161.859 307.228 180.636 309.561 197.5 311 C 215.167 311.667 232.833 311.667 250.5 311 C 252.577 310.808 254.577 310.308 256.5 309.5 C 222.409 306.142 189.076 299.309 156.5 289 C 132.992 273.172 118.826 251.338 114 223.5 C 115.049 222.483 116.216 222.316 117.5 223 C 178.162 257.996 243.162 280.496 312.5 290.5 C 312.939 304.318 317.439 316.651 326 327.5 C 334.913 338.207 345.747 346.374 358.5 352 C 360.81 352.497 363.143 352.663 365.5 352.5 C 368.838 338.816 372.338 325.149 376 311.5 C 378.251 304.11 375.751 299.276 368.5 297 C 364.463 296.393 360.463 296.56 356.5 297.5 C 357.473 292.353 360.473 288.853 365.5 287 C 371.188 286.446 376.855 286.613 382.5 287.5 C 384.88 280.865 389.713 277.199 397 276.5 C 405.541 277.037 411.208 281.371 414 289.5 C 416.767 305.04 418.267 320.706 418.5 336.5 C 418.334 341.179 418.501 345.845 419 350.5 C 419.822 347.883 420.322 345.216 420.5 342.5 C 431.061 289.03 441.727 235.697 452.5 182.5 Z"/></g><g><path style="opacity: 1; fill: rgb(242, 242, 242);" d="M 390.5 282.5 C 392.6 282.477 394.16 282.598 395.727 283.954 C 396.988 283.695 399.081 283.665 399.82 282.591 C 400.415 283.99 398.791 284.777 397.863 286.045 C 393.877 287.589 390.847 287.544 387.5 285 C 388.068 283.897 388.644 282.852 390.5 282.5 Z"/></g><g><path style="opacity:1" fill="#f0324d" d="M 522.5,312.5 C 554.937,343.436 586.937,374.936 618.5,407C 586.667,438.833 554.833,470.667 523,502.5C 514.155,493.955 505.655,485.121 497.5,476C 520.5,453 543.5,430 566.5,407C 543.5,384 520.5,361 497.5,338C 506.036,329.632 514.369,321.132 522.5,312.5 Z"/></g></g></svg>